<?xml version="1.0" encoding="UTF-8" standalone="no"?>
<!DOCTYPE svg PUBLIC "-//W3C//DTD SVG 1.1//EN" "http://www.w3.org/Graphics/SVG/1.1/DTD/svg11.dtd">
<svg width="100%" height="100%" viewBox="0 0 64 64" version="1.1" xmlns="http://www.w3.org/2000/svg" xmlns:xlink="http://www.w3.org/1999/xlink" xml:space="preserve" xmlns:serif="http://www.serif.com/" style="fill-rule:evenodd;clip-rule:evenodd;stroke-linejoin:round;stroke-miterlimit:2;">
    <g transform="matrix(1,0,0,1,-2853.3,-9558.53)">
        <g transform="matrix(1,0,0,2.17871,1604.64,8585)">
            <g transform="matrix(2.51903,-1.1562,1.30427,0.579626,-1215.4,1271.74)">
                <path d="M850.563,282.934L845.681,268.207C845.443,267.488 845.55,266.514 845.92,266.035C846.291,265.555 846.785,265.75 847.023,266.469L853,284.5L846.727,302.531C846.476,303.25 845.979,303.445 845.616,302.965C845.254,302.486 845.163,301.512 845.413,300.793L850.537,286.066L831.987,286.066C831.547,286.066 831.195,285.364 831.202,284.5C831.209,283.636 831.572,282.934 832.013,282.934L850.563,282.934Z"/>
            </g>
        </g>
    </g>
</svg>
