<?xml version="1.0" encoding="UTF-8" standalone="no"?>
<!DOCTYPE svg PUBLIC "-//W3C//DTD SVG 1.1//EN" "http://www.w3.org/Graphics/SVG/1.1/DTD/svg11.dtd">
<svg width="100%" height="100%" viewBox="0 0 80 81" version="1.1" xmlns="http://www.w3.org/2000/svg" xmlns:xlink="http://www.w3.org/1999/xlink" xml:space="preserve" xmlns:serif="http://www.serif.com/" style="fill-rule:evenodd;clip-rule:evenodd;stroke-linejoin:round;stroke-miterlimit:2;">
    <g transform="matrix(1,0,0,1,-15263,-1911.52)">
        <g transform="matrix(1,0,0,1,3967.35,0)">
            <g id="corner">
                <g id="orange" transform="matrix(-0.133293,0.133293,-0.111827,-0.111827,12063.1,2403.05)">
                    <path d="M1034.11,5294.16C1009.73,5307.52 936.599,5353.43 936.599,5463.83C936.599,5527.98 980.292,5580.06 1034.11,5580.06C1087.93,5580.06 1131.62,5527.98 1131.62,5463.83C1131.62,5353.43 1024.36,5336.58 1034.11,5294.16Z" style="fill:rgb(255,124,86);"/>
                </g>
                <g id="orenge" transform="matrix(0.133293,-0.133293,0.111827,0.111827,10608.4,1499.72)">
                    <path d="M1034.11,5294.16C1009.73,5307.52 936.599,5353.43 936.599,5463.83C936.599,5527.98 980.292,5580.06 1034.11,5580.06C1087.93,5580.06 1131.62,5527.98 1131.62,5463.83C1131.62,5353.43 1024.36,5336.58 1034.11,5294.16Z" style="fill:rgb(255,124,86);"/>
                </g>
                <g id="orange1" serif:id="orange" transform="matrix(0.132813,0.133772,-0.112228,0.111424,11789.9,1226.03)">
                    <path d="M1034.11,5294.16C1009.73,5307.52 936.599,5353.43 936.599,5463.83C936.599,5527.98 980.292,5580.06 1034.11,5580.06C1087.93,5580.06 1131.62,5527.98 1131.62,5463.83C1131.62,5353.43 1024.36,5336.58 1034.11,5294.16Z" style="fill:rgb(255,124,86);"/>
                </g>
            </g>
        </g>
    </g>
</svg>
