<?xml version="1.0" encoding="UTF-8" standalone="no"?>
<!DOCTYPE svg PUBLIC "-//W3C//DTD SVG 1.1//EN" "http://www.w3.org/Graphics/SVG/1.1/DTD/svg11.dtd">
<svg width="100%" height="100%" viewBox="0 0 600 600" version="1.1" xmlns="http://www.w3.org/2000/svg" xmlns:xlink="http://www.w3.org/1999/xlink" xml:space="preserve" xmlns:serif="http://www.serif.com/" style="fill-rule:evenodd;clip-rule:evenodd;stroke-linejoin:round;stroke-miterlimit:2;">
    <g transform="matrix(1,0,0,1,-100,-100)">
        <path d="M537.5,100L262.5,100C173.393,100.101 100.101,173.393 100,262.5L100,537.5C100.101,626.607 173.393,699.899 262.5,700L537.5,700C626.607,699.899 699.899,626.607 700,537.5L700,262.5C699.899,173.393 626.607,100.101 537.5,100ZM675,537.5C674.915,612.898 612.898,674.915 537.5,675L262.5,675C187.102,674.915 125.085,612.898 125,537.5L125,262.5C125.085,187.102 187.102,125.085 262.5,125L537.5,125C612.898,125.085 674.915,187.102 675,262.5L675,537.5Z" style="fill-rule:nonzero;"/>
    </g>
    <g transform="matrix(29.2449,0,0,29.2449,-62.3447,-50.9137)">
        <path d="M11.5,11.5L9.5,11.5C9.224,11.5 9,11.276 9,11C9,10.724 9.224,10.5 9.5,10.5L11.5,10.5L11.5,8.35C11.5,7.359 11.836,6.648 12.344,6.181C13.092,5.493 14.256,5.325 15.426,5.682C15.69,5.762 15.839,6.042 15.758,6.306C15.678,6.57 15.398,6.719 15.134,6.638C14.336,6.395 13.532,6.448 13.021,6.918C12.688,7.223 12.5,7.701 12.5,8.35L12.5,10.5L14.5,10.5C14.776,10.5 15,10.724 15,11C15,11.276 14.776,11.5 14.5,11.5L12.5,11.5L12.5,18C12.5,18.276 12.276,18.5 12,18.5C11.724,18.5 11.5,18.276 11.5,18L11.5,11.5Z" style="fill:rgb(34,27,56);"/>
    </g>
</svg>
