<?xml version="1.0" encoding="UTF-8" standalone="no"?>
<!DOCTYPE svg PUBLIC "-//W3C//DTD SVG 1.1//EN" "http://www.w3.org/Graphics/SVG/1.1/DTD/svg11.dtd">
<svg width="100%" height="100%" viewBox="0 0 600 600" version="1.1" xmlns="http://www.w3.org/2000/svg" xmlns:xlink="http://www.w3.org/1999/xlink" xml:space="preserve" xmlns:serif="http://www.serif.com/" style="fill-rule:evenodd;clip-rule:evenodd;stroke-linejoin:round;stroke-miterlimit:2;">
    <g transform="matrix(1,0,0,1,-100,-100)">
        <path d="M400,262.5C324.57,262.5 262.5,324.57 262.5,400C262.5,475.43 324.57,537.5 400,537.5C475.43,537.5 537.5,475.43 537.5,400C537.415,324.602 475.398,262.585 400,262.5ZM400,512.5C338.284,512.5 287.5,461.716 287.5,400C287.5,338.284 338.284,287.5 400,287.5C461.716,287.5 512.5,338.284 512.5,400C512.431,461.689 461.689,512.431 400,512.5ZM537.5,100L262.5,100C173.393,100.101 100.101,173.393 100,262.5L100,537.5C100.101,626.607 173.393,699.899 262.5,700L537.5,700C626.607,699.899 699.899,626.607 700,537.5L700,262.5C699.899,173.393 626.607,100.101 537.5,100ZM675,537.5C674.915,612.898 612.898,674.915 537.5,675L262.5,675C187.102,674.915 125.085,612.898 125,537.5L125,262.5C125.085,187.102 187.102,125.085 262.5,125L537.5,125C612.898,125.085 674.915,187.102 675,262.5L675,537.5ZM587.5,237.5C587.5,251.215 576.215,262.5 562.5,262.5C548.785,262.5 537.5,251.215 537.5,237.5C537.5,223.785 548.785,212.5 562.5,212.5C576.209,212.516 587.484,223.791 587.5,237.5Z" style="fill-rule:nonzero;"/>
    </g>
</svg>
