<?xml version="1.0" encoding="UTF-8" standalone="no"?>
<!DOCTYPE svg PUBLIC "-//W3C//DTD SVG 1.1//EN" "http://www.w3.org/Graphics/SVG/1.1/DTD/svg11.dtd">
<svg width="100%" height="100%" viewBox="0 0 21 21" version="1.1" xmlns="http://www.w3.org/2000/svg" xmlns:xlink="http://www.w3.org/1999/xlink" xml:space="preserve" xmlns:serif="http://www.serif.com/" style="fill-rule:evenodd;clip-rule:evenodd;stroke-linejoin:round;stroke-miterlimit:2;">
    <g transform="matrix(1,0,0,1,-2923.22,-11887)">
        <g transform="matrix(0.742206,0,0,1,2585.54,11008.9)">
            <g transform="matrix(1.40335,2.69784e-14,-0.343594,0.842853,-613.513,648.719)">
                <path d="M848.526,285.784L832.286,285.686C831.755,285.683 831.196,285.149 831.039,284.494C830.881,283.839 831.184,283.31 831.714,283.314L848.033,283.412L840.704,273.984C840.279,273.437 840.221,272.7 840.576,272.34C840.93,271.98 841.563,272.132 841.989,272.679L850.67,283.848C850.976,284.241 851.102,284.75 850.992,285.145L847.819,296.519C847.666,297.068 847.109,297.226 846.577,296.87C846.045,296.514 845.738,295.779 845.891,295.229C845.891,295.229 847.733,288.628 848.526,285.784Z"/>
            </g>
        </g>
    </g>
</svg>
