<?xml version="1.0" encoding="UTF-8" standalone="no"?>
<!DOCTYPE svg PUBLIC "-//W3C//DTD SVG 1.1//EN" "http://www.w3.org/Graphics/SVG/1.1/DTD/svg11.dtd">
<svg width="100%" height="100%" viewBox="0 0 560 90" version="1.1" xmlns="http://www.w3.org/2000/svg" xmlns:xlink="http://www.w3.org/1999/xlink" xml:space="preserve" xmlns:serif="http://www.serif.com/" style="fill-rule:evenodd;clip-rule:evenodd;stroke-linejoin:round;stroke-miterlimit:2;">
    <g transform="matrix(1,0,0,1,0,-10.6092)">
        <g transform="matrix(1.4,0,0,0.5,0,0)">
            <g transform="matrix(1,0,0,2,0,-200.782)">
                <path d="M0,111c71,5 144.938,1.704 200,37c39,25 152,52 200,6l0,46l-400,0l0,-89Z" style="fill:rgb(242,94,13);fill-opacity:0.24;"/>
            </g>
        </g>
        <g transform="matrix(1.4,0,0,0.5,0,0)">
            <g transform="matrix(1,0,0,2,0,-200.782)">
                <path d="M0,169c0,0 58.884,-9.475 112.944,31.391c86.539,-1.142 169.382,-0.315 241.056,-0.391c8.696,-10.984 25.403,-20.764 46,-29.315c-0.373,-30.534 -0.134,-23.04 -0,-54.45c-36.238,1.312 -70.695,6.437 -96,18.765c-98.006,47.746 -83,-94 -304,34Z" style="fill:rgb(242,94,13);fill-opacity:0.5;"/>
            </g>
        </g>
        <g transform="matrix(1.4,0,0,0.5,0,0)">
            <g transform="matrix(1,0,0,2,0,-200.782)">
                <path d="M0,124c49,18 91,71 144,76c48.384,-13.052 53.188,0.033 104,0c63.385,-26.114 147.915,-74.871 152,-84.798l0,84.798l-400,0l0,-76Z" style="fill:rgb(242,94,13);fill-opacity:0.5;"/>
            </g>
        </g>
    </g>
</svg>
