<?xml version="1.0" encoding="UTF-8" standalone="no"?>
<!DOCTYPE svg PUBLIC "-//W3C//DTD SVG 1.1//EN" "http://www.w3.org/Graphics/SVG/1.1/DTD/svg11.dtd">
<svg width="100%" height="100%" viewBox="0 0 400 200" version="1.1" xmlns="http://www.w3.org/2000/svg" xmlns:xlink="http://www.w3.org/1999/xlink" xml:space="preserve" xmlns:serif="http://www.serif.com/" style="fill-rule:evenodd;clip-rule:evenodd;stroke-linejoin:round;stroke-miterlimit:2;">
    <path d="M0,111C71,116 144.938,112.704 200,148C239,173 352,200 400,154L400,200L0,200L0,111Z" style="fill:rgb(242,94,13);fill-opacity:0.24;"/>
    <path d="M0,169C0,169 58.884,159.525 112.944,200.391C199.483,199.249 282.326,200.076 354,200C362.696,189.016 379.403,179.236 400,170.685C399.627,140.151 399.866,147.645 400,116.235C363.762,117.547 329.305,122.672 304,135C205.994,182.746 221,41 0,169Z" style="fill:hsl(260,82%,71%);fill-opacity:0.5;"/>
    <path d="M0,124C49,142 91,195 144,200C192.384,186.948 197.188,200.033 248,200C311.385,173.886 395.915,125.129 400,115.202L400,200L0,200L0,124Z" style="fill:rgb(242,94,13);fill-opacity:0.5;"/>
</svg>
